# Blender v2.82 (sub 7) OBJ File: 'PersonArm.blend'
# www.blender.org
mtllib PersonArm.mtl
o Cube.001
v 0.228311 2.218112 -0.246550
v 0.231601 2.157633 0.342934
v 0.290160 1.875419 -0.042549
v 0.281951 1.800100 0.340372
v 0.214998 2.237616 0.008299
v 0.415805 2.239566 -0.310086
v 0.296170 1.822968 0.341034
v 0.279286 1.796129 0.339961
v 0.429116 2.060227 -0.274469
v 0.173273 2.063493 -0.253228
v 0.313127 2.163025 -0.650445
v 0.389893 2.226876 -0.627047
v 0.426848 2.101809 -0.630171
v 0.310710 2.112290 -0.676825
v 0.304538 2.296349 0.000646
v 0.193115 2.250258 0.176752
v 0.332778 2.221390 -0.649808
v 0.239453 2.226881 -1.042223
v 0.307248 2.240109 -1.050035
v 0.295285 2.169634 -1.044324
v 0.244761 2.176564 -1.093098
v 0.274039 2.264032 -1.069280
v 0.307500 2.115419 -0.697091
v 0.409753 2.107295 -0.669655
v 0.380090 2.123449 -0.766747
v 0.298516 2.246263 -0.894484
v 0.335532 2.235580 -0.905277
v 0.229928 2.157599 0.342945
v 0.229691 2.159524 0.341415
v 0.241976 1.777384 0.349322
v 0.189930 1.856612 -0.073631
v 0.271264 1.712353 0.328592
v 0.284222 1.816660 -0.039850
v 0.192147 1.800072 -0.069058
v 0.242809 1.702336 0.337432
vt 0.727244 0.093614
vt 0.660327 0.085417
vt 0.683180 0.161451
vt 0.714601 0.152809
vt 0.235778 0.867951
vt 0.237265 0.935148
vt 0.259384 0.924432
vt 0.249107 0.889087
vt 0.337674 0.899700
vt 0.369070 0.875978
vt 0.369117 0.871853
vt 0.597245 0.096859
vt 0.532918 0.116130
vt 0.536908 0.121933
vt 0.566833 0.161423
vt 0.597811 0.186314
vt 0.605871 0.105243
vt 0.605930 0.105915
vt 0.606358 0.105103
vt 0.528809 0.099893
vt 0.532236 0.115044
vt 0.597250 0.096184
vt 0.686790 0.323790
vt 0.694345 0.320208
vt 0.994977 0.176289
vt 0.985377 0.168573
vt 0.981548 0.325270
vt 0.991577 0.343032
vt 0.994812 0.184407
vt 0.781298 0.819890
vt 0.868691 0.834825
vt 0.833902 0.659710
vt 0.792601 0.675873
vt 0.563061 0.305876
vt 0.586422 0.312360
vt 0.994977 0.000218
vt 0.963360 0.000000
vt 0.647819 0.191531
vt 0.666341 0.316454
vt 0.585351 0.753222
vt 0.585351 0.735715
vt 0.574247 0.733437
vt 0.569500 0.747125
vt 0.573447 0.758629
vt 0.693247 0.426465
vt 0.705556 0.421858
vt 0.563331 0.322137
vt 0.564072 0.362151
vt 0.580935 0.424499
vt 0.835595 0.651542
vt 0.799643 0.660275
vt 0.718963 0.491918
vt 0.730571 0.478146
vt 0.868692 0.491918
vt 0.849868 0.510429
vt 0.812658 0.621444
vt 0.366868 0.854883
vt 0.237937 0.857065
vt 0.369019 0.871126
vt 0.707247 0.483702
vt 0.566192 0.476549
vt 0.578080 0.482843
vt 0.007880 0.076503
vt 0.043880 0.079577
vt 0.044890 0.068778
vt 0.005729 0.065286
vt 0.515729 0.100055
vt 0.517629 0.111604
vn -0.4786 0.8687 -0.1274
vn 0.4869 -0.8544 -0.1815
vn 0.9420 0.1607 0.2945
vn -0.0072 0.6216 0.7833
vn 0.2003 0.0193 0.9795
vn -0.7278 0.6699 -0.1468
vn -0.9791 -0.1403 0.1469
vn -0.0285 -0.9924 -0.1200
vn 0.9866 0.1592 -0.0345
vn -0.8796 0.4309 -0.2017
vn 0.8098 0.4631 0.3602
vn 0.1481 0.9850 -0.0889
vn 0.2514 0.1018 -0.9625
vn 0.0480 0.9973 0.0559
vn 0.9618 0.1833 -0.2032
vn -0.0406 -0.9908 -0.1290
vn -0.8261 0.5254 0.2038
vn 0.8960 0.2735 -0.3499
vn -0.0208 -0.9879 -0.1535
vn 0.9936 -0.1133 0.0044
vn 0.4430 0.8964 -0.0106
vn 0.9643 -0.0352 -0.2624
vn 0.3101 -0.0698 -0.9481
vn 0.3246 -0.1514 0.9336
usemtl Material.001
s off
f 1/1/1 16/2/1 15/3/1 5/4/1
f 3/5/2 1/6/2 5/7/2 10/8/2 9/9/2 7/10/2 4/11/2
f 2/12/3 4/13/3 7/14/3 9/15/3 6/16/3
f 28/17/4 2/18/4 29/19/4
f 30/20/5 8/21/5 4/13/5 2/12/5 28/22/5
f 5/4/6 15/3/6 17/23/6 11/24/6
f 14/25/7 11/26/7 18/27/7 21/28/7 23/29/7
f 9/30/8 10/31/8 14/32/8 13/33/8
f 6/16/9 9/15/9 13/34/9 12/35/9
f 10/36/10 5/37/10 11/26/10 14/25/10
f 15/3/11 16/2/11 2/18/11 6/38/11
f 17/23/12 15/3/12 6/38/12 12/39/12
f 20/40/13 21/41/13 18/42/13 22/43/13 19/44/13
f 17/23/14 12/39/14 27/45/14 26/46/14
f 12/35/15 24/47/15 25/48/15 27/49/15
f 13/33/16 14/32/16 23/50/16 24/51/16
f 11/24/17 17/23/17 26/46/17 22/52/17 18/53/17
f 24/47/18 12/35/18 13/34/18
f 24/51/19 23/50/19 21/54/19 20/55/19 25/56/19
f 32/57/20 33/58/20 3/5/20 4/11/20 8/59/20
f 26/46/21 27/45/21 19/60/21 22/52/21
f 27/49/22 25/48/22 20/61/22 19/62/22
f 33/63/23 34/64/23 31/65/23 3/66/23
f 35/67/24 32/68/24 8/21/24 30/20/24
