# Generated with liteGL.js by Javi Agenjo

v -2.3906 -0.0287 -0.0068
v -1.7547 1.5219 -0.0676
v -1.3601 3.2341 -0.1196
v -2.3906 -0.0287 -0.0068
v -1.3601 3.2341 -0.1196
v -1.8168 1.4567 -0.6741
v -0.1421 -0.0287 -1.2654
v 0.0163 1.5103 -1.1492
v 0.9239 1.6832 -0.9075
v -0.1421 -0.0287 -1.2654
v 0.9239 1.6832 -0.9075
v 0.8488 0.5184 -1.0717
v -0.1421 -0.0287 -1.2654
v 0.8488 0.5184 -1.0717
v 0.5830 -0.0287 -1.3534
v 1.6566 -0.0287 -0.0068
v 1.5130 0.9782 -0.0068
v 1.4451 1.7774 -0.0068
v 1.6566 -0.0287 -0.0068
v 1.4451 1.7774 -0.0068
v 1.3027 1.5159 0.9583
v 1.6566 -0.0287 -0.0068
v 1.3027 1.5159 0.9583
v 1.3550 -0.0287 0.6882
v -0.1421 -0.0287 1.2654
v -0.1421 -0.0165 1.2654
v -0.1524 -0.0285 1.2641
v -0.0333 -0.0287 -0.0068
v 1.6566 -0.0287 -0.0068
v 1.3550 -0.0287 0.6882
v -0.0333 -0.0287 -0.0068
v 1.3550 -0.0287 0.6882
v 0.9716 -0.0287 1.2300
v -0.0333 -0.0287 -0.0068
v 0.9716 -0.0287 1.2300
v -0.1219 -0.0287 1.2648
v -0.0333 -0.0287 -0.0068
v -0.1219 -0.0287 1.2648
v -0.1421 -0.0287 1.2654
v -0.5204 3.1576 -0.0632
v -1.3601 3.2341 -0.1196
v -1.0897 2.2874 0.4926
v -0.5204 3.1576 -0.0632
v -1.0897 2.2874 0.4926
v -0.4397 2.7809 0.6821
v 0.9487 3.1267 -0.0068
v 0.1647 3.7798 -0.0068
v 0.1067 3.2033 0.6523
v 0.9487 3.1267 -0.0068
v 0.1067 3.2033 0.6523
v 1.0082 2.7531 0.6523
v -2.3906 -0.0287 -0.0068
v -0.0333 -0.0287 -0.0068
v -0.1421 -0.0287 1.2654
v -2.3906 -0.0287 -0.0068
v -0.1421 -0.0287 1.2654
v -0.1524 -0.0285 1.2641
v -2.3906 -0.0287 -0.0068
v -0.1524 -0.0285 1.2641
v -0.1597 -0.0284 1.2631
v -2.3906 -0.0287 -0.0068
v -0.1597 -0.0284 1.2631
v -1.7233 0.0007 1.0602
v -2.3906 -0.0287 -0.0068
v -1.7233 0.0007 1.0602
v -1.8264 -0.0287 0.5259
v 1.3550 -0.0287 0.6882
v 1.3027 1.5159 0.9583
v 0.9716 -0.0287 1.2300
v -1.6793 -0.0287 -0.9906
v -1.0578 2.7613 -0.6555
v -0.6856 1.6927 -0.9153
v -1.6793 -0.0287 -0.9906
v -0.6856 1.6927 -0.9153
v -0.5834 1.5512 -0.9912
v -1.6793 -0.0287 -0.9906
v -0.5834 1.5512 -0.9912
v -0.7791 -0.0287 -1.1177
v -1.6793 -0.0287 -0.9906
v -0.7791 -0.0287 -1.1177
v -0.1421 -0.0287 -1.2654
v -1.6793 -0.0287 -0.9906
v -0.1421 -0.0287 -1.2654
v -0.0333 -0.0287 -0.0068
v -1.6793 -0.0287 -0.9906
v -0.0333 -0.0287 -0.0068
v -2.3906 -0.0287 -0.0068
v 0.7845 3.0422 -0.7483
v 0.0869 3.3985 -0.8467
v 0.1735 3.7765 -0.5445
v 0.7845 3.0422 -0.7483
v 0.1735 3.7765 -0.5445
v 0.9487 3.1267 -0.0068
v 0.0869 3.3985 -0.8467
v -0.5645 2.8889 -0.6409
v 0.1735 3.7765 -0.5445
v -0.1421 -0.0287 -1.2654
v 0.5830 -0.0287 -1.3534
v 1.0262 -0.0287 -0.9756
v -0.1421 -0.0287 -1.2654
v 1.0262 -0.0287 -0.9756
v 1.6566 -0.0287 -0.0068
v -0.1421 -0.0287 -1.2654
v 1.6566 -0.0287 -0.0068
v -0.0333 -0.0287 -0.0068
v 1.0262 -0.0287 -0.9756
v 0.8488 0.5184 -1.0717
v 0.9239 1.6832 -0.9075
v 1.0262 -0.0287 -0.9756
v 0.9239 1.6832 -0.9075
v 1.5130 0.9782 -0.0068
v 1.0262 -0.0287 -0.9756
v 1.5130 0.9782 -0.0068
v 1.6566 -0.0287 -0.0068
v -1.7233 0.0007 1.0602
v -1.5937 0.6582 0.9043
v -1.8264 -0.0287 0.5259
v -1.7547 1.5219 -0.0676
v -1.3993 1.1822 0.7949
v -1.0897 2.2874 0.4926
v -1.7547 1.5219 -0.0676
v -1.0897 2.2874 0.4926
v -1.3601 3.2341 -0.1196
v -0.5945 1.1666 1.0301
v -0.1421 1.1509 1.2654
v 0.1067 3.2033 0.6523
v -0.5945 1.1666 1.0301
v 0.1067 3.2033 0.6523
v -0.4397 2.7809 0.6821
v -1.8264 -0.0287 0.5259
v -1.5937 0.6582 0.9043
v -1.3993 1.1822 0.7949
v -1.8264 -0.0287 0.5259
v -1.3993 1.1822 0.7949
v -1.7547 1.5219 -0.0676
v -1.8264 -0.0287 0.5259
v -1.7547 1.5219 -0.0676
v -2.3906 -0.0287 -0.0068
v -1.6793 -0.0287 -0.9906
v -1.8168 1.4567 -0.6741
v -1.0578 2.7613 -0.6555
v -1.8168 1.4567 -0.6741
v -1.6793 -0.0287 -0.9906
v -2.3906 -0.0287 -0.0068
v -0.1421 -0.0287 -1.2654
v -0.5834 1.5512 -0.9912
v -0.6856 1.6927 -0.9153
v -0.1421 -0.0287 -1.2654
v -0.6856 1.6927 -0.9153
v 0.0869 3.3985 -0.8467
v -0.1421 -0.0287 -1.2654
v 0.0869 3.3985 -0.8467
v 0.0163 1.5103 -1.1492
v 0.1735 3.7765 -0.5445
v -0.5126 3.1314 -0.3227
v -0.5204 3.1576 -0.0632
v 0.1735 3.7765 -0.5445
v -0.5204 3.1576 -0.0632
v 0.1647 3.7798 -0.0068
v 0.9716 -0.0287 1.2300
v 1.3027 1.5159 0.9583
v -0.1317 -0.0050 1.2651
v 0.9716 -0.0287 1.2300
v -0.1317 -0.0050 1.2651
v -0.1219 -0.0287 1.2648
v 1.4451 1.7774 -0.0068
v 0.7845 3.0422 -0.7483
v 0.9487 3.1267 -0.0068
v 0.9239 1.6832 -0.9075
v 0.0163 1.5103 -1.1492
v 0.0869 3.3985 -0.8467
v 0.9239 1.6832 -0.9075
v 0.0869 3.3985 -0.8467
v 0.7845 3.0422 -0.7483
v 1.5130 0.9782 -0.0068
v 0.9239 1.6832 -0.9075
v 0.7845 3.0422 -0.7483
v 1.5130 0.9782 -0.0068
v 0.7845 3.0422 -0.7483
v 1.4451 1.7774 -0.0068
v 0.5830 -0.0287 -1.3534
v 0.8488 0.5184 -1.0717
v 1.0262 -0.0287 -0.9756
v 1.3027 1.5159 0.9583
v 1.4451 1.7774 -0.0068
v 0.9487 3.1267 -0.0068
v 1.3027 1.5159 0.9583
v 0.9487 3.1267 -0.0068
v 1.0082 2.7531 0.6523
v -0.1421 1.1509 1.2654
v 1.3027 1.5159 0.9583
v 0.1067 3.2033 0.6523
v 0.1735 3.7765 -0.5445
v -0.5645 2.8889 -0.6409
v -0.5126 3.1314 -0.3227
v -0.5645 2.8889 -0.6409
v 0.0869 3.3985 -0.8467
v -0.6856 1.6927 -0.9153
v -1.3993 1.1822 0.7949
v -0.5945 1.1666 1.0301
v -0.4397 2.7809 0.6821
v -1.3993 1.1822 0.7949
v -0.4397 2.7809 0.6821
v -1.0897 2.2874 0.4926
v 0.9487 3.1267 -0.0068
v 0.1735 3.7765 -0.5445
v 0.1647 3.7798 -0.0068
v 0.1647 3.7798 -0.0068
v -0.5204 3.1576 -0.0632
v -0.4397 2.7809 0.6821
v 0.1647 3.7798 -0.0068
v -0.4397 2.7809 0.6821
v 0.1067 3.2033 0.6523
v -0.5126 3.1314 -0.3227
v -0.5645 2.8889 -0.6409
v -1.0578 2.7613 -0.6555
v -0.5126 3.1314 -0.3227
v -1.0578 2.7613 -0.6555
v -1.3601 3.2341 -0.1196
v -0.6856 1.6927 -0.9153
v -1.0578 2.7613 -0.6555
v -0.5645 2.8889 -0.6409
v -0.5204 3.1576 -0.0632
v -0.5126 3.1314 -0.3227
v -1.3601 3.2341 -0.1196
v -0.7791 -0.0287 -1.1177
v -0.5834 1.5512 -0.9912
v -0.1421 -0.0287 -1.2654
v -0.1219 -0.0287 1.2648
v -0.1317 -0.0050 1.2651
v -0.1421 -0.0165 1.2654
v -0.1219 -0.0287 1.2648
v -0.1421 -0.0165 1.2654
v -0.1421 -0.0287 1.2654
v -0.5945 1.1666 1.0301
v -0.1421 0.0201 1.2654
v -0.1421 1.1509 1.2654
v -0.1597 -0.0284 1.2631
v -1.5937 0.6582 0.9043
v -1.7233 0.0007 1.0602
v -1.5937 0.6582 0.9043
v -0.5945 1.1666 1.0301
v -1.3993 1.1822 0.7949
v -0.1317 -0.0050 1.2651
v 1.3027 1.5159 0.9583
v -0.1421 1.1509 1.2654
v -0.1317 -0.0050 1.2651
v -0.1421 1.1509 1.2654
v -0.1421 0.0201 1.2654
v -0.1524 -0.0285 1.2641
v -0.1421 -0.0165 1.2654
v -0.1421 0.0201 1.2654
v -0.1524 -0.0285 1.2641
v -0.1421 0.0201 1.2654
v -0.5945 1.1666 1.0301
v -0.1524 -0.0285 1.2641
v -0.5945 1.1666 1.0301
v -1.5937 0.6582 0.9043
v -0.1524 -0.0285 1.2641
v -1.5937 0.6582 0.9043
v -0.1597 -0.0284 1.2631
v -0.1421 -0.0165 1.2654
v -0.1317 -0.0050 1.2651
v -0.1421 0.0201 1.2654
v 0.1067 3.2033 0.6523
v 1.3027 1.5159 0.9583
v 1.0082 2.7531 0.6523
v -1.0578 2.7613 -0.6555
v -1.8168 1.4567 -0.6741
v -1.3601 3.2341 -0.1196

vn -0.9329 0.2969 0.0636
vn -0.9329 0.2969 0.0636
vn -0.9329 0.2969 0.0636
vn -0.9329 0.2969 0.0636
vn -0.9329 0.2969 0.0636
vn -0.9329 0.2969 0.0636
vn 0.1186 0.1195 -0.7767
vn 0.1186 0.1195 -0.7767
vn 0.1186 0.1195 -0.7767
vn 0.1186 0.1195 -0.7767
vn 0.1186 0.1195 -0.7767
vn 0.1186 0.1195 -0.7767
vn 0.1186 0.1195 -0.7767
vn 0.1186 0.1195 -0.7767
vn 0.1186 0.1195 -0.7767
vn 0.9481 0.0535 0.2463
vn 0.9481 0.0535 0.2463
vn 0.9481 0.0535 0.2463
vn 0.9481 0.0535 0.2463
vn 0.9481 0.0535 0.2463
vn 0.9481 0.0535 0.2463
vn 0.9481 0.0535 0.2463
vn 0.9481 0.0535 0.2463
vn 0.9481 0.0535 0.2463
vn -0.1020 0.0000 0.7862
vn -0.1020 0.0000 0.7862
vn -0.1020 0.0000 0.7862
vn 0.0000 -0.8460 0.0000
vn 0.0000 -0.8460 0.0000
vn 0.0000 -0.8460 0.0000
vn 0.0000 -0.8460 0.0000
vn 0.0000 -0.8460 0.0000
vn 0.0000 -0.8460 0.0000
vn 0.0000 -0.8460 0.0000
vn 0.0000 -0.8460 0.0000
vn 0.0000 -0.8460 0.0000
vn 0.0000 -0.8460 0.0000
vn 0.0000 -0.8460 0.0000
vn 0.0000 -0.8460 0.0000
vn -0.2452 0.5326 0.5826
vn -0.2452 0.5326 0.5826
vn -0.2452 0.5326 0.5826
vn -0.2452 0.5326 0.5826
vn -0.2452 0.5326 0.5826
vn -0.2452 0.5326 0.5826
vn 0.4017 0.6136 0.4418
vn 0.4017 0.6136 0.4418
vn 0.4017 0.6136 0.4418
vn 0.4017 0.6136 0.4418
vn 0.4017 0.6136 0.4418
vn 0.4017 0.6136 0.4418
vn -0.0043 -0.8459 0.0097
vn -0.0043 -0.8459 0.0097
vn -0.0043 -0.8459 0.0097
vn -0.0043 -0.8459 0.0097
vn -0.0043 -0.8459 0.0097
vn -0.0043 -0.8459 0.0097
vn -0.0043 -0.8459 0.0097
vn -0.0043 -0.8459 0.0097
vn -0.0043 -0.8459 0.0097
vn -0.0043 -0.8459 0.0097
vn -0.0043 -0.8459 0.0097
vn -0.0043 -0.8459 0.0097
vn -0.0043 -0.8459 0.0097
vn -0.0043 -0.8459 0.0097
vn -0.0043 -0.8459 0.0097
vn 0.7426 -0.0667 0.5255
vn 0.7426 -0.0667 0.5255
vn 0.7426 -0.0667 0.5255
vn -0.1544 0.1142 -0.7734
vn -0.1544 0.1142 -0.7734
vn -0.1544 0.1142 -0.7734
vn -0.1544 0.1142 -0.7734
vn -0.1544 0.1142 -0.7734
vn -0.1544 0.1142 -0.7734
vn -0.1544 0.1142 -0.7734
vn -0.1544 0.1142 -0.7734
vn -0.1544 0.1142 -0.7734
vn 0.0000 -0.8460 0.0000
vn 0.0000 -0.8460 0.0000
vn 0.0000 -0.8460 0.0000
vn 0.0000 -0.8460 0.0000
vn 0.0000 -0.8460 0.0000
vn 0.0000 -0.8460 0.0000
vn 0.0000 -0.8460 0.0000
vn 0.0000 -0.8460 0.0000
vn 0.0000 -0.8460 0.0000
vn 0.5556 0.5694 -0.3859
vn 0.5556 0.5694 -0.3859
vn 0.5556 0.5694 -0.3859
vn 0.5556 0.5694 -0.3859
vn 0.5556 0.5694 -0.3859
vn 0.5556 0.5694 -0.3859
vn -0.5411 0.5012 -0.4717
vn -0.5411 0.5012 -0.4717
vn -0.5411 0.5012 -0.4717
vn 0.0000 -0.8460 0.0000
vn 0.0000 -0.8460 0.0000
vn 0.0000 -0.8460 0.0000
vn 0.0000 -0.8460 0.0000
vn 0.0000 -0.8460 0.0000
vn 0.0000 -0.8460 0.0000
vn 0.0000 -0.8460 0.0000
vn 0.0000 -0.8460 0.0000
vn 0.0000 -0.8460 0.0000
vn 0.7653 0.0811 -0.5030
vn 0.7653 0.0811 -0.5030
vn 0.7653 0.0811 -0.5030
vn 0.7653 0.0811 -0.5030
vn 0.7653 0.0811 -0.5030
vn 0.7653 0.0811 -0.5030
vn 0.7653 0.0811 -0.5030
vn 0.7653 0.0811 -0.5030
vn 0.7653 0.0811 -0.5030
vn -0.9399 0.2254 0.1688
vn -0.9399 0.2254 0.1688
vn -0.9399 0.2254 0.1688
vn -0.7079 0.2411 0.5107
vn -0.7079 0.2411 0.5107
vn -0.7079 0.2411 0.5107
vn -0.7079 0.2411 0.5107
vn -0.7079 0.2411 0.5107
vn -0.7079 0.2411 0.5107
vn -0.2417 0.2202 0.7387
vn -0.2417 0.2202 0.7387
vn -0.2417 0.2202 0.7387
vn -0.2417 0.2202 0.7387
vn -0.2417 0.2202 0.7387
vn -0.2417 0.2202 0.7387
vn -0.7415 0.2471 0.4773
vn -0.7415 0.2471 0.4773
vn -0.7415 0.2471 0.4773
vn -0.7415 0.2471 0.4773
vn -0.7415 0.2471 0.4773
vn -0.7415 0.2471 0.4773
vn -0.7415 0.2471 0.4773
vn -0.7415 0.2471 0.4773
vn -0.7415 0.2471 0.4773
vn -0.2238 0.1410 -0.7589
vn -0.2238 0.1410 -0.7589
vn -0.2238 0.1410 -0.7589
vn -0.7368 0.0453 -0.5326
vn -0.7368 0.0453 -0.5326
vn -0.7368 0.0453 -0.5326
vn -0.2099 0.1150 -0.7651
vn -0.2099 0.1150 -0.7651
vn -0.2099 0.1150 -0.7651
vn -0.2099 0.1150 -0.7651
vn -0.2099 0.1150 -0.7651
vn -0.2099 0.1150 -0.7651
vn -0.2099 0.1150 -0.7651
vn -0.2099 0.1150 -0.7651
vn -0.2099 0.1150 -0.7651
vn -0.6180 0.6639 -0.0375
vn -0.6180 0.6639 -0.0375
vn -0.6180 0.6639 -0.0375
vn -0.6180 0.6639 -0.0375
vn -0.6180 0.6639 -0.0375
vn -0.6180 0.6639 -0.0375
vn 0.0276 0.1294 0.7806
vn 0.0276 0.1294 0.7806
vn 0.0276 0.1294 0.7806
vn 0.0276 0.1294 0.7806
vn 0.0276 0.1294 0.7806
vn 0.0276 0.1294 0.7806
vn 0.8770 0.3226 -0.2311
vn 0.8770 0.3226 -0.2311
vn 0.8770 0.3226 -0.2311
vn 0.1762 0.1134 -0.7707
vn 0.1762 0.1134 -0.7707
vn 0.1762 0.1134 -0.7707
vn 0.1762 0.1134 -0.7707
vn 0.1762 0.1134 -0.7707
vn 0.1762 0.1134 -0.7707
vn 0.7928 0.1108 -0.4704
vn 0.7928 0.1108 -0.4704
vn 0.7928 0.1108 -0.4704
vn 0.7928 0.1108 -0.4704
vn 0.7928 0.1108 -0.4704
vn 0.7928 0.1108 -0.4704
vn 0.5570 0.0658 -0.6535
vn 0.5570 0.0658 -0.6535
vn 0.5570 0.0658 -0.6535
vn 0.9126 0.2984 0.1633
vn 0.9126 0.2984 0.1633
vn 0.9126 0.2984 0.1633
vn 0.9126 0.2984 0.1633
vn 0.9126 0.2984 0.1633
vn 0.9126 0.2984 0.1633
vn 0.1075 0.2140 0.7598
vn 0.1075 0.2140 0.7598
vn 0.1075 0.2140 0.7598
vn -0.6298 0.5588 -0.3231
vn -0.6298 0.5588 -0.3231
vn -0.6298 0.5588 -0.3231
vn -0.3800 0.2005 -0.7066
vn -0.3800 0.2005 -0.7066
vn -0.3800 0.2005 -0.7066
vn -0.2858 0.2229 0.7281
vn -0.2858 0.2229 0.7281
vn -0.2858 0.2229 0.7281
vn -0.2858 0.2229 0.7281
vn -0.2858 0.2229 0.7281
vn -0.2858 0.2229 0.7281
vn 0.5760 0.6915 0.0052
vn 0.5760 0.6915 0.0052
vn 0.5760 0.6915 0.0052
vn -0.5060 0.5862 0.4060
vn -0.5060 0.5862 0.4060
vn -0.5060 0.5862 0.4060
vn -0.5060 0.5862 0.4060
vn -0.5060 0.5862 0.4060
vn -0.5060 0.5862 0.4060
vn -0.0873 0.6138 -0.5395
vn -0.0873 0.6138 -0.5395
vn -0.0873 0.6138 -0.5395
vn -0.0873 0.6138 -0.5395
vn -0.0873 0.6138 -0.5395
vn -0.0873 0.6138 -0.5395
vn -0.0236 0.1794 -0.7721
vn -0.0236 0.1794 -0.7721
vn -0.0236 0.1794 -0.7721
vn 0.0819 0.8385 -0.0819
vn 0.0819 0.8385 -0.0819
vn 0.0819 0.8385 -0.0819
vn -0.1794 0.0842 -0.7734
vn -0.1794 0.0842 -0.7734
vn -0.1794 0.0842 -0.7734
vn 0.0251 0.0000 0.7900
vn 0.0251 0.0000 0.7900
vn 0.0251 0.0000 0.7900
vn 0.0251 0.0000 0.7900
vn 0.0251 0.0000 0.7900
vn 0.0251 0.0000 0.7900
vn -0.3801 0.0000 0.7309
vn -0.3801 0.0000 0.7309
vn -0.3801 0.0000 0.7309
vn -0.0954 0.2001 0.7641
vn -0.0954 0.2001 0.7641
vn -0.0954 0.2001 0.7641
vn -0.2120 0.2333 0.7409
vn -0.2120 0.2333 0.7409
vn -0.2120 0.2333 0.7409
vn 0.1644 0.0013 0.7795
vn 0.1644 0.0013 0.7795
vn 0.1644 0.0013 0.7795
vn 0.1644 0.0013 0.7795
vn 0.1644 0.0013 0.7795
vn 0.1644 0.0013 0.7795
vn -0.1506 0.0964 0.7760
vn -0.1506 0.0964 0.7760
vn -0.1506 0.0964 0.7760
vn -0.1506 0.0964 0.7760
vn -0.1506 0.0964 0.7760
vn -0.1506 0.0964 0.7760
vn -0.1506 0.0964 0.7760
vn -0.1506 0.0964 0.7760
vn -0.1506 0.0964 0.7760
vn -0.1506 0.0964 0.7760
vn -0.1506 0.0964 0.7760
vn -0.1506 0.0964 0.7760
vn 0.0251 0.0000 0.7900
vn 0.0251 0.0000 0.7900
vn 0.0251 0.0000 0.7900
vn 0.1065 0.2133 0.7601
vn 0.1065 0.2133 0.7601
vn 0.1065 0.2133 0.7601
vn -0.5420 0.3238 -0.5913
vn -0.5420 0.3238 -0.5913
vn -0.5420 0.3238 -0.5913

vt 0.8272 0.0000  0.0000
vt 0.8159 0.1926  0.0000
vt 0.8272 0.3872  0.0000
vt 0.8272 0.0000  0.0000
vt 0.8272 0.3872  0.0000
vt 0.7284 0.1794  0.0000
vt 0.5116 0.1018  0.0000
vt 0.5673 0.2596  0.0000
vt 0.5444 0.3314  0.0000
vt 0.5116 0.1018  0.0000
vt 0.5444 0.3314  0.0000
vt 0.4443 0.2404  0.0000
vt 0.5116 0.1018  0.0000
vt 0.4443 0.2404  0.0000
vt 0.4311 0.1693  0.0000
vt 0.1114 0.5653  0.0000
vt 0.1309 0.6758  0.0000
vt 0.1463 0.7635  0.0000
vt 0.1114 0.5653  0.0000
vt 0.1463 0.7635  0.0000
vt 0.0000 0.7425  0.0000
vt 0.1114 0.5653  0.0000
vt 0.0000 0.7425  0.0000
vt 0.0021 0.5729  0.0000
vt 0.1129 0.4754  0.0000
vt 0.1133 0.4741  0.0000
vt 0.1139 0.4757  0.0000
vt 0.6562 0.7605  0.0000
vt 0.6665 0.5477  0.0000
vt 0.7908 0.5532  0.0000
vt 0.6562 0.7605  0.0000
vt 0.7908 0.5532  0.0000
vt 0.8838 0.6391  0.0000
vt 0.6562 0.7605  0.0000
vt 0.8838 0.6391  0.0000
vt 0.8838 0.7680  0.0000
vt 0.6562 0.7605  0.0000
vt 0.8838 0.7680  0.0000
vt 0.8838 0.7704  0.0000
vt 0.3986 0.0764  0.0000
vt 0.4311 0.1529  0.0000
vt 0.3175 0.1924  0.0000
vt 0.3986 0.0764  0.0000
vt 0.3175 0.1924  0.0000
vt 0.3000 0.1452  0.0000
vt 0.9938 0.1176  0.0000
vt 0.8272 0.1593  0.0000
vt 0.8498 0.0157  0.0000
vt 0.9938 0.1176  0.0000
vt 0.8498 0.0157  0.0000
vt 1.0000 0.0000  0.0000
vt 0.6446 1.0000  0.0000
vt 0.6562 0.7605  0.0000
vt 0.8838 0.7704  0.0000
vt 0.6446 1.0000  0.0000
vt 0.8838 0.7704  0.0000
vt 0.8835 0.7714  0.0000
vt 0.6446 1.0000  0.0000
vt 0.8835 0.7714  0.0000
vt 0.8833 0.7721  0.0000
vt 0.6446 1.0000  0.0000
vt 0.8833 0.7721  0.0000
vt 0.8397 0.9213  0.0000
vt 0.6446 1.0000  0.0000
vt 0.8397 0.9213  0.0000
vt 0.7435 0.9306  0.0000
vt 0.8272 0.3343  0.0000
vt 0.9371 0.2703  0.0000
vt 0.9371 0.3997  0.0000
vt 0.6313 0.0370  0.0000
vt 0.7304 0.3378  0.0000
vt 0.7015 0.3939  0.0000
vt 0.6313 0.0370  0.0000
vt 0.7015 0.3939  0.0000
vt 0.6658 0.3390  0.0000
vt 0.6313 0.0370  0.0000
vt 0.6658 0.3390  0.0000
vt 0.5759 0.0670  0.0000
vt 0.4731 0.8996  0.0000
vt 0.4537 0.8308  0.0000
vt 0.4311 0.7507  0.0000
vt 0.4731 0.8996  0.0000
vt 0.4311 0.7507  0.0000
vt 0.6562 0.7605  0.0000
vt 0.4731 0.8996  0.0000
vt 0.6562 0.7605  0.0000
vt 0.6446 1.0000  0.0000
vt 1.0000 0.2219  0.0000
vt 0.9037 0.2703  0.0000
vt 0.8510 0.2395  0.0000
vt 1.0000 0.2219  0.0000
vt 0.8510 0.2395  0.0000
vt 0.9938 0.1176  0.0000
vt 0.6466 0.4841  0.0000
vt 0.7308 0.4363  0.0000
vt 0.7337 0.5477  0.0000
vt 0.4311 0.7507  0.0000
vt 0.4383 0.6007  0.0000
vt 0.4969 0.5687  0.0000
vt 0.4311 0.7507  0.0000
vt 0.4969 0.5687  0.0000
vt 0.6665 0.5477  0.0000
vt 0.4311 0.7507  0.0000
vt 0.6665 0.5477  0.0000
vt 0.6562 0.7605  0.0000
vt 0.2731 0.5514  0.0000
vt 0.3127 0.6100  0.0000
vt 0.3199 0.7344  0.0000
vt 0.2731 0.5514  0.0000
vt 0.3199 0.7344  0.0000
vt 0.1309 0.6758  0.0000
vt 0.2731 0.5514  0.0000
vt 0.1309 0.6758  0.0000
vt 0.1114 0.5653  0.0000
vt 0.9012 0.3997  0.0000
vt 0.9012 0.4737  0.0000
vt 0.8272 0.4010  0.0000
vt 0.4148 0.3508  0.0000
vt 0.2903 0.3821  0.0000
vt 0.3175 0.1924  0.0000
vt 0.4148 0.3508  0.0000
vt 0.3175 0.1924  0.0000
vt 0.4311 0.1529  0.0000
vt 0.2214 0.3673  0.0000
vt 0.1524 0.3524  0.0000
vt 0.2826 0.0979  0.0000
vt 0.2214 0.3673  0.0000
vt 0.2826 0.0979  0.0000
vt 0.3000 0.1452  0.0000
vt 0.3215 0.5246  0.0000
vt 0.2860 0.4476  0.0000
vt 0.2903 0.3821  0.0000
vt 0.3215 0.5246  0.0000
vt 0.2903 0.3821  0.0000
vt 0.4148 0.3508  0.0000
vt 0.3215 0.5246  0.0000
vt 0.4148 0.3508  0.0000
vt 0.4311 0.5435  0.0000
vt 0.6313 0.0370  0.0000
vt 0.7284 0.1794  0.0000
vt 0.7304 0.3378  0.0000
vt 0.7284 0.1794  0.0000
vt 0.6313 0.0370  0.0000
vt 0.8272 0.0000  0.0000
vt 0.5116 0.1018  0.0000
vt 0.6658 0.3390  0.0000
vt 0.7015 0.3939  0.0000
vt 0.5116 0.1018  0.0000
vt 0.7015 0.3939  0.0000
vt 0.6466 0.4841  0.0000
vt 0.5116 0.1018  0.0000
vt 0.6466 0.4841  0.0000
vt 0.5673 0.2596  0.0000
vt 0.7337 0.5477  0.0000
vt 0.7825 0.4639  0.0000
vt 0.8226 0.4671  0.0000
vt 0.7337 0.5477  0.0000
vt 0.8226 0.4671  0.0000
vt 0.8179 0.5471  0.0000
vt 0.0000 0.4275  0.0000
vt 0.0363 0.2467  0.0000
vt 0.1126 0.4725  0.0000
vt 0.0000 0.4275  0.0000
vt 0.1126 0.4725  0.0000
vt 0.1108 0.4745  0.0000
vt 0.1463 0.7635  0.0000
vt 0.3269 0.9183  0.0000
vt 0.2010 0.9386  0.0000
vt 0.3199 0.7344  0.0000
vt 0.4135 0.6972  0.0000
vt 0.4135 0.9436  0.0000
vt 0.3199 0.7344  0.0000
vt 0.4135 0.9436  0.0000
vt 0.3269 0.9183  0.0000
vt 0.1309 0.6758  0.0000
vt 0.3199 0.7344  0.0000
vt 0.3269 0.9183  0.0000
vt 0.1309 0.6758  0.0000
vt 0.3269 0.9183  0.0000
vt 0.1463 0.7635  0.0000
vt 0.3401 0.5435  0.0000
vt 0.3127 0.6100  0.0000
vt 0.2731 0.5514  0.0000
vt 0.0000 0.7425  0.0000
vt 0.1463 0.7635  0.0000
vt 0.2010 0.9386  0.0000
vt 0.0000 0.7425  0.0000
vt 0.2010 0.9386  0.0000
vt 0.0883 0.9052  0.0000
vt 0.1524 0.3524  0.0000
vt 0.0363 0.2467  0.0000
vt 0.2826 0.0979  0.0000
vt 0.7337 0.5477  0.0000
vt 0.7308 0.4363  0.0000
vt 0.7825 0.4639  0.0000
vt 0.7308 0.4363  0.0000
vt 0.6466 0.4841  0.0000
vt 0.7015 0.3939  0.0000
vt 0.2903 0.3821  0.0000
vt 0.2214 0.3673  0.0000
vt 0.3000 0.1452  0.0000
vt 0.2903 0.3821  0.0000
vt 0.3000 0.1452  0.0000
vt 0.3175 0.1924  0.0000
vt 0.9938 0.1176  0.0000
vt 0.8510 0.2395  0.0000
vt 0.8272 0.1593  0.0000
vt 0.3661 0.0000  0.0000
vt 0.3986 0.0764  0.0000
vt 0.3000 0.1452  0.0000
vt 0.3661 0.0000  0.0000
vt 0.3000 0.1452  0.0000
vt 0.2826 0.0979  0.0000
vt 0.7825 0.4639  0.0000
vt 0.7308 0.4363  0.0000
vt 0.7304 0.3378  0.0000
vt 0.7825 0.4639  0.0000
vt 0.7304 0.3378  0.0000
vt 0.8272 0.3872  0.0000
vt 0.7015 0.3939  0.0000
vt 0.7304 0.3378  0.0000
vt 0.7308 0.4363  0.0000
vt 0.8226 0.4671  0.0000
vt 0.7825 0.4639  0.0000
vt 0.8272 0.3872  0.0000
vt 0.5759 0.0670  0.0000
vt 0.6658 0.3390  0.0000
vt 0.5116 0.1018  0.0000
vt 0.1108 0.4745  0.0000
vt 0.1126 0.4725  0.0000
vt 0.1133 0.4741  0.0000
vt 0.1108 0.4745  0.0000
vt 0.1133 0.4741  0.0000
vt 0.1129 0.4754  0.0000
vt 0.2214 0.3673  0.0000
vt 0.1145 0.4703  0.0000
vt 0.1524 0.3524  0.0000
vt 0.1146 0.4760  0.0000
vt 0.2860 0.4476  0.0000
vt 0.2659 0.5245  0.0000
vt 0.2860 0.4476  0.0000
vt 0.2214 0.3673  0.0000
vt 0.2903 0.3821  0.0000
vt 0.1126 0.4725  0.0000
vt 0.0363 0.2467  0.0000
vt 0.1524 0.3524  0.0000
vt 0.1126 0.4725  0.0000
vt 0.1524 0.3524  0.0000
vt 0.1145 0.4703  0.0000
vt 0.1139 0.4757  0.0000
vt 0.1133 0.4741  0.0000
vt 0.1145 0.4703  0.0000
vt 0.1139 0.4757  0.0000
vt 0.1145 0.4703  0.0000
vt 0.2214 0.3673  0.0000
vt 0.1139 0.4757  0.0000
vt 0.2214 0.3673  0.0000
vt 0.2860 0.4476  0.0000
vt 0.1139 0.4757  0.0000
vt 0.2860 0.4476  0.0000
vt 0.1146 0.4760  0.0000
vt 0.1133 0.4741  0.0000
vt 0.1126 0.4725  0.0000
vt 0.1145 0.4703  0.0000
vt 0.2826 0.0979  0.0000
vt 0.0363 0.2467  0.0000
vt 0.1474 0.0957  0.0000
vt 0.7304 0.3378  0.0000
vt 0.7284 0.1794  0.0000
vt 0.8272 0.3872  0.0000
g mesh_0
usemtl mat_0
f 1/1/1 2/2/2 3/3/3
f 4/4/4 5/5/5 6/6/6
f 7/7/7 8/8/8 9/9/9
f 10/10/10 11/11/11 12/12/12
f 13/13/13 14/14/14 15/15/15
f 16/16/16 17/17/17 18/18/18
f 19/19/19 20/20/20 21/21/21
f 22/22/22 23/23/23 24/24/24
f 25/25/25 26/26/26 27/27/27
f 28/28/28 29/29/29 30/30/30
f 31/31/31 32/32/32 33/33/33
f 34/34/34 35/35/35 36/36/36
f 37/37/37 38/38/38 39/39/39
f 40/40/40 41/41/41 42/42/42
f 43/43/43 44/44/44 45/45/45
f 46/46/46 47/47/47 48/48/48
f 49/49/49 50/50/50 51/51/51
f 52/52/52 53/53/53 54/54/54
f 55/55/55 56/56/56 57/57/57
f 58/58/58 59/59/59 60/60/60
f 61/61/61 62/62/62 63/63/63
f 64/64/64 65/65/65 66/66/66
f 67/67/67 68/68/68 69/69/69
f 70/70/70 71/71/71 72/72/72
f 73/73/73 74/74/74 75/75/75
f 76/76/76 77/77/77 78/78/78
f 79/79/79 80/80/80 81/81/81
f 82/82/82 83/83/83 84/84/84
f 85/85/85 86/86/86 87/87/87
f 88/88/88 89/89/89 90/90/90
f 91/91/91 92/92/92 93/93/93
f 94/94/94 95/95/95 96/96/96
f 97/97/97 98/98/98 99/99/99
f 100/100/100 101/101/101 102/102/102
f 103/103/103 104/104/104 105/105/105
f 106/106/106 107/107/107 108/108/108
f 109/109/109 110/110/110 111/111/111
f 112/112/112 113/113/113 114/114/114
f 115/115/115 116/116/116 117/117/117
f 118/118/118 119/119/119 120/120/120
f 121/121/121 122/122/122 123/123/123
f 124/124/124 125/125/125 126/126/126
f 127/127/127 128/128/128 129/129/129
f 130/130/130 131/131/131 132/132/132
f 133/133/133 134/134/134 135/135/135
f 136/136/136 137/137/137 138/138/138
f 139/139/139 140/140/140 141/141/141
f 142/142/142 143/143/143 144/144/144
f 145/145/145 146/146/146 147/147/147
f 148/148/148 149/149/149 150/150/150
f 151/151/151 152/152/152 153/153/153
f 154/154/154 155/155/155 156/156/156
f 157/157/157 158/158/158 159/159/159
f 160/160/160 161/161/161 162/162/162
f 163/163/163 164/164/164 165/165/165
f 166/166/166 167/167/167 168/168/168
f 169/169/169 170/170/170 171/171/171
f 172/172/172 173/173/173 174/174/174
f 175/175/175 176/176/176 177/177/177
f 178/178/178 179/179/179 180/180/180
f 181/181/181 182/182/182 183/183/183
f 184/184/184 185/185/185 186/186/186
f 187/187/187 188/188/188 189/189/189
f 190/190/190 191/191/191 192/192/192
f 193/193/193 194/194/194 195/195/195
f 196/196/196 197/197/197 198/198/198
f 199/199/199 200/200/200 201/201/201
f 202/202/202 203/203/203 204/204/204
f 205/205/205 206/206/206 207/207/207
f 208/208/208 209/209/209 210/210/210
f 211/211/211 212/212/212 213/213/213
f 214/214/214 215/215/215 216/216/216
f 217/217/217 218/218/218 219/219/219
f 220/220/220 221/221/221 222/222/222
f 223/223/223 224/224/224 225/225/225
f 226/226/226 227/227/227 228/228/228
f 229/229/229 230/230/230 231/231/231
f 232/232/232 233/233/233 234/234/234
f 235/235/235 236/236/236 237/237/237
f 238/238/238 239/239/239 240/240/240
f 241/241/241 242/242/242 243/243/243
f 244/244/244 245/245/245 246/246/246
f 247/247/247 248/248/248 249/249/249
f 250/250/250 251/251/251 252/252/252
f 253/253/253 254/254/254 255/255/255
f 256/256/256 257/257/257 258/258/258
f 259/259/259 260/260/260 261/261/261
f 262/262/262 263/263/263 264/264/264
f 265/265/265 266/266/266 267/267/267
f 268/268/268 269/269/269 270/270/270