# MagicaVoxel @ Ephtracy

# group
o 

# material
mtllib voxel.mtl
usemtl palette

# normals
vn -1 0 0
vn 1 0 0
vn 0 0 1
vn 0 0 -1
vn 0 -1 0
vn 0 1 0

# texcoords
vt 0.365234 0.5
vt 0.369141 0.5
vt 0.416016 0.5
vt 0.447266 0.5
vt 0.857422 0.5

# verts
v 1.4 2 -1.7
v 1.4 2 -2.2
v 1.4 2.1 -1.7
v 1.4 2.1 -1.9
v 1.4 2.1 -2.2
v 1.4 2.9 -1.9
v 1.4 2.9 -2.2
v 1.9 2 -3.1
v 1.9 2 -4
v 1.9 2.3 -3.1
v 1.9 2.3 -3.2
v 1.9 2.4 -3.1
v 1.9 2.4 -3.2
v 1.9 3.1 -3.1
v 1.9 3.1 -4
v 2 2 -1.7
v 2 2 -2.2
v 2 2.1 -1.7
v 2 2.1 -1.9
v 2 2.1 -2.2
v 2 2.2 -1.9
v 2 2.2 -2.2
v 2.2 3.1 -3.1
v 2.2 3.1 -3.9
v 2.2 3.2 -3.1
v 2.2 3.2 -3.9
v 2.5 3.1 -3.9
v 2.5 3.1 -4
v 2.5 3.2 -3.2
v 2.5 3.2 -3.9
v 2.5 3.3 -3.2
v 2.5 3.3 -4
v 1.6 2 -1.7
v 1.6 2 -2.2
v 1.6 2.1 -1.7
v 1.6 2.1 -1.9
v 1.6 2.1 -2.2
v 1.6 2.9 -1.9
v 1.6 2.9 -2.2
v 2.2 2 -1.7
v 2.2 2 -2.2
v 2.2 2.1 -1.7
v 2.2 2.1 -1.9
v 2.2 2.1 -2.2
v 2.2 2.2 -1.9
v 2.2 2.2 -2.2
v 2.6 3.1 -3.9
v 2.6 3.1 -4
v 2.6 3.2 -3.2
v 2.6 3.2 -3.3
v 2.6 3.2 -3.9
v 2.6 3.2 -4
v 2.6 3.3 -3.2
v 2.6 3.3 -3.3
v 2.7 3.2 -3.3
v 2.7 3.2 -3.9
v 2.7 3.2 -4
v 2.7 3.3 -3.3
v 2.7 3.3 -4
v 2.9 3.1 -3.1
v 2.9 3.1 -3.9
v 2.9 3.2 -3.1
v 2.9 3.2 -3.9
v 3.1 2 -3.1
v 3.1 2 -4
v 3.1 2.2 -3.2
v 3.1 2.2 -4
v 3.1 2.3 -3.1
v 3.1 2.3 -3.2
v 3.1 2.4 -3.1
v 3.1 2.4 -4
v 3.1 3.1 -3.1
v 3.1 3.1 -4
v 1.4 2 -1.7
v 1.4 2.1 -1.7
v 1.6 2 -1.7
v 1.6 2.1 -1.7
v 2 2 -1.7
v 2 2.1 -1.7
v 2.2 2 -1.7
v 2.2 2.1 -1.7
v 1.4 2.1 -1.9
v 1.4 2.9 -1.9
v 1.6 2.1 -1.9
v 1.6 2.9 -1.9
v 2 2.1 -1.9
v 2 2.2 -1.9
v 2.2 2.1 -1.9
v 2.2 2.2 -1.9
v 1.9 2 -3.1
v 1.9 2.3 -3.1
v 1.9 2.4 -3.1
v 1.9 3.1 -3.1
v 2.1 2.6 -3.1
v 2.1 3 -3.1
v 2.2 3.1 -3.1
v 2.2 3.2 -3.1
v 2.3 2.6 -3.1
v 2.3 3 -3.1
v 2.4 2.6 -3.1
v 2.4 3 -3.1
v 2.6 2.6 -3.1
v 2.6 3 -3.1
v 2.7 2.6 -3.1
v 2.7 3 -3.1
v 2.9 2.6 -3.1
v 2.9 3 -3.1
v 2.9 3.1 -3.1
v 2.9 3.2 -3.1
v 3.1 2 -3.1
v 3.1 2.3 -3.1
v 3.1 2.4 -3.1
v 3.1 3.1 -3.1
v 2.5 3.2 -3.2
v 2.5 3.3 -3.2
v 2.6 3.2 -3.2
v 2.6 3.3 -3.2
v 2.6 3.2 -3.3
v 2.6 3.3 -3.3
v 2.7 3.2 -3.3
v 2.7 3.3 -3.3
v 1.4 2 -2.2
v 1.4 2.1 -2.2
v 1.4 2.9 -2.2
v 1.6 2 -2.2
v 1.6 2.1 -2.2
v 1.6 2.9 -2.2
v 2 2 -2.2
v 2 2.1 -2.2
v 2 2.2 -2.2
v 2.2 2 -2.2
v 2.2 2.1 -2.2
v 2.2 2.2 -2.2
v 2.2 3.1 -3.9
v 2.2 3.2 -3.9
v 2.5 3.1 -3.9
v 2.5 3.2 -3.9
v 2.6 3.1 -3.9
v 2.6 3.2 -3.9
v 2.7 3.2 -3.9
v 2.9 3.1 -3.9
v 2.9 3.2 -3.9
v 1.9 2 -4
v 1.9 3.1 -4
v 2.5 3.1 -4
v 2.5 3.3 -4
v 2.6 3.1 -4
v 2.6 3.2 -4
v 2.7 3.2 -4
v 2.7 3.3 -4
v 3 2.2 -4
v 3 2.4 -4
v 3.1 2 -4
v 3.1 2.2 -4
v 3.1 2.4 -4
v 3.1 3.1 -4
v 1.4 2 -1.7
v 1.6 2 -1.7
v 2 2 -1.7
v 2.2 2 -1.7
v 1.4 2 -2.2
v 1.6 2 -2.2
v 2 2 -2.2
v 2.2 2 -2.2
v 1.9 2 -3.1
v 3.1 2 -3.1
v 1.9 2 -4
v 3.1 2 -4
v 2.6 3.2 -3.9
v 2.7 3.2 -3.9
v 2.6 3.2 -4
v 2.7 3.2 -4
v 1.4 2.1 -1.7
v 1.6 2.1 -1.7
v 2 2.1 -1.7
v 2.2 2.1 -1.7
v 1.4 2.1 -1.9
v 1.6 2.1 -1.9
v 2 2.1 -1.9
v 2.2 2.1 -1.9
v 2 2.2 -1.9
v 2.2 2.2 -1.9
v 2 2.2 -2.2
v 2.2 2.2 -2.2
v 1.4 2.9 -1.9
v 1.6 2.9 -1.9
v 1.4 2.9 -2.2
v 1.6 2.9 -2.2
v 1.9 3.1 -3.1
v 2.2 3.1 -3.1
v 2.9 3.1 -3.1
v 3.1 3.1 -3.1
v 2.2 3.1 -3.9
v 2.5 3.1 -3.9
v 2.6 3.1 -3.9
v 2.9 3.1 -3.9
v 1.9 3.1 -4
v 2.5 3.1 -4
v 2.6 3.1 -4
v 3.1 3.1 -4
v 2.2 3.2 -3.1
v 2.9 3.2 -3.1
v 2.5 3.2 -3.2
v 2.6 3.2 -3.2
v 2.6 3.2 -3.3
v 2.7 3.2 -3.3
v 2.2 3.2 -3.9
v 2.5 3.2 -3.9
v 2.7 3.2 -3.9
v 2.9 3.2 -3.9
v 2.5 3.3 -3.2
v 2.6 3.3 -3.2
v 2.6 3.3 -3.3
v 2.7 3.3 -3.3
v 2.5 3.3 -4
v 2.7 3.3 -4

# faces
f 3/3/1 2/3/1 1/3/1
f 4/3/1 2/3/1 3/3/1
f 5/3/1 2/3/1 4/3/1
f 6/2/1 5/2/1 4/2/1
f 7/2/1 5/2/1 6/2/1
f 10/2/1 9/2/1 8/2/1
f 11/2/1 9/2/1 10/2/1
f 12/1/1 11/1/1 10/1/1
f 13/2/1 9/2/1 11/2/1
f 13/1/1 11/1/1 12/1/1
f 14/2/1 13/2/1 12/2/1
f 15/2/1 9/2/1 13/2/1
f 15/2/1 13/2/1 14/2/1
f 18/3/1 17/3/1 16/3/1
f 19/3/1 17/3/1 18/3/1
f 20/3/1 17/3/1 19/3/1
f 21/2/1 20/2/1 19/2/1
f 22/2/1 20/2/1 21/2/1
f 25/5/1 24/5/1 23/5/1
f 26/5/1 24/5/1 25/5/1
f 30/5/1 28/5/1 27/5/1
f 31/5/1 30/5/1 29/5/1
f 32/5/1 28/5/1 30/5/1
f 32/5/1 30/5/1 31/5/1
f 33/3/2 34/3/2 35/3/2
f 35/3/2 34/3/2 36/3/2
f 36/3/2 34/3/2 37/3/2
f 36/2/2 37/2/2 38/2/2
f 38/2/2 37/2/2 39/2/2
f 40/3/2 41/3/2 42/3/2
f 42/3/2 41/3/2 43/3/2
f 43/3/2 41/3/2 44/3/2
f 43/2/2 44/2/2 45/2/2
f 45/2/2 44/2/2 46/2/2
f 47/5/2 48/5/2 51/5/2
f 51/5/2 48/5/2 52/5/2
f 49/5/2 50/5/2 53/5/2
f 53/5/2 50/5/2 54/5/2
f 55/5/2 56/5/2 58/5/2
f 56/5/2 57/5/2 58/5/2
f 58/5/2 57/5/2 59/5/2
f 60/5/2 61/5/2 62/5/2
f 62/5/2 61/5/2 63/5/2
f 64/2/2 65/2/2 66/2/2
f 66/2/2 65/2/2 67/2/2
f 64/2/2 66/2/2 68/2/2
f 66/1/2 67/1/2 69/1/2
f 68/2/2 66/2/2 69/2/2
f 68/1/2 69/1/2 70/1/2
f 69/1/2 67/1/2 71/1/2
f 70/1/2 69/1/2 71/1/2
f 70/2/2 71/2/2 72/2/2
f 72/2/2 71/2/2 73/2/2
f 76/3/3 75/3/3 74/3/3
f 77/3/3 75/3/3 76/3/3
f 80/3/3 79/3/3 78/3/3
f 81/3/3 79/3/3 80/3/3
f 84/2/3 83/2/3 82/2/3
f 85/2/3 83/2/3 84/2/3
f 88/2/3 87/2/3 86/2/3
f 89/2/3 87/2/3 88/2/3
f 94/2/3 93/2/3 92/2/3
f 95/2/3 93/2/3 94/2/3
f 96/2/3 93/2/3 95/2/3
f 98/2/3 94/2/3 92/2/3
f 98/4/3 95/4/3 94/4/3
f 99/2/3 96/2/3 95/2/3
f 99/4/3 95/4/3 98/4/3
f 100/2/3 98/2/3 92/2/3
f 100/2/3 99/2/3 98/2/3
f 101/2/3 96/2/3 99/2/3
f 101/2/3 99/2/3 100/2/3
f 102/2/3 100/2/3 92/2/3
f 102/4/3 101/4/3 100/4/3
f 103/2/3 96/2/3 101/2/3
f 103/4/3 101/4/3 102/4/3
f 104/2/3 102/2/3 92/2/3
f 104/2/3 103/2/3 102/2/3
f 105/2/3 96/2/3 103/2/3
f 105/2/3 103/2/3 104/2/3
f 106/2/3 104/2/3 92/2/3
f 106/4/3 105/4/3 104/4/3
f 107/2/3 96/2/3 105/2/3
f 107/4/3 105/4/3 106/4/3
f 108/5/3 97/5/3 96/5/3
f 108/2/3 96/2/3 107/2/3
f 109/5/3 97/5/3 108/5/3
f 110/2/3 91/2/3 90/2/3
f 111/1/3 92/1/3 91/1/3
f 111/2/3 91/2/3 110/2/3
f 112/2/3 107/2/3 106/2/3
f 112/1/3 92/1/3 111/1/3
f 112/2/3 106/2/3 92/2/3
f 112/2/3 108/2/3 107/2/3
f 113/2/3 108/2/3 112/2/3
f 116/5/3 115/5/3 114/5/3
f 117/5/3 115/5/3 116/5/3
f 120/5/3 119/5/3 118/5/3
f 121/5/3 119/5/3 120/5/3
f 122/3/4 123/3/4 125/3/4
f 123/2/4 124/2/4 126/2/4
f 125/3/4 123/3/4 126/3/4
f 126/2/4 124/2/4 127/2/4
f 128/3/4 129/3/4 131/3/4
f 129/2/4 130/2/4 132/2/4
f 131/3/4 129/3/4 132/3/4
f 132/2/4 130/2/4 133/2/4
f 134/5/4 135/5/4 136/5/4
f 136/5/4 135/5/4 137/5/4
f 138/5/4 139/5/4 140/5/4
f 138/5/4 140/5/4 141/5/4
f 141/5/4 140/5/4 142/5/4
f 143/2/4 144/2/4 145/2/4
f 143/2/4 145/2/4 147/2/4
f 145/5/4 146/5/4 147/5/4
f 147/5/4 146/5/4 148/5/4
f 148/5/4 146/5/4 149/5/4
f 149/5/4 146/5/4 150/5/4
f 143/2/4 147/2/4 151/2/4
f 151/2/4 147/2/4 152/2/4
f 143/2/4 151/2/4 153/2/4
f 151/1/4 152/1/4 154/1/4
f 153/2/4 151/2/4 154/2/4
f 152/2/4 147/2/4 155/2/4
f 154/1/4 152/1/4 155/1/4
f 155/2/4 147/2/4 156/2/4
f 161/3/5 158/3/5 157/3/5
f 162/3/5 158/3/5 161/3/5
f 163/3/5 160/3/5 159/3/5
f 164/3/5 160/3/5 163/3/5
f 167/2/5 166/2/5 165/2/5
f 168/2/5 166/2/5 167/2/5
f 171/5/5 170/5/5 169/5/5
f 172/5/5 170/5/5 171/5/5
f 173/3/6 174/3/6 177/3/6
f 177/3/6 174/3/6 178/3/6
f 175/3/6 176/3/6 179/3/6
f 179/3/6 176/3/6 180/3/6
f 181/2/6 182/2/6 183/2/6
f 183/2/6 182/2/6 184/2/6
f 185/2/6 186/2/6 187/2/6
f 187/2/6 186/2/6 188/2/6
f 189/2/6 190/2/6 193/2/6
f 191/2/6 192/2/6 196/2/6
f 193/2/6 194/2/6 197/2/6
f 189/2/6 193/2/6 197/2/6
f 197/2/6 194/2/6 198/2/6
f 195/2/6 196/2/6 199/2/6
f 196/2/6 192/2/6 200/2/6
f 199/2/6 196/2/6 200/2/6
f 201/5/6 202/5/6 203/5/6
f 203/5/6 202/5/6 204/5/6
f 204/5/6 202/5/6 205/5/6
f 205/5/6 202/5/6 206/5/6
f 201/5/6 203/5/6 207/5/6
f 207/5/6 203/5/6 208/5/6
f 206/5/6 202/5/6 209/5/6
f 209/5/6 202/5/6 210/5/6
f 211/5/6 212/5/6 213/5/6
f 211/5/6 213/5/6 215/5/6
f 213/5/6 214/5/6 215/5/6
f 215/5/6 214/5/6 216/5/6
