# Blender v2.82 (sub 7) OBJ File: 'person.blend'
# www.blender.org
mtllib player.mtl
o Cube.001
v -0.261764 -0.095537 -0.039740
v -0.125731 2.831390 0.049793
v -0.027945 1.210081 0.085026
v -0.295957 -0.107202 -0.580535
v -0.130505 2.808340 -0.258258
v -0.025592 1.210081 -0.407458
v -0.233729 2.366399 -0.301356
v -0.230214 2.305920 0.087913
v -0.295503 2.023707 -0.296486
v -0.323294 1.948387 0.052331
v -0.375505 2.308687 -0.211773
v -0.452631 2.298946 -0.008290
v -0.337499 1.971256 0.053241
v -0.110584 2.598750 -0.000733
v -0.105866 2.591692 -0.180898
v -0.138339 2.408592 -0.231907
v -0.138837 2.415798 -0.002253
v -0.295770 1.944417 0.085774
v -0.004890 1.210081 -0.362743
v -0.097853 -0.107202 -0.582267
v -0.117501 -0.094077 -0.041001
v -0.026891 1.205321 0.085016
v -0.293199 1.324277 0.029337
v -0.040866 0.725482 -0.069610
v -0.267512 0.771594 -0.101180
v -0.313744 1.356155 -0.319019
v -0.233812 1.570074 0.034355
v -0.254726 1.623294 -0.278807
v -0.043072 0.697016 -0.407305
v -0.277541 0.743771 -0.355956
v -0.134699 -0.044461 -0.042542
v -0.133006 -0.034556 -0.223736
v -0.227608 -0.039978 -0.042972
v -0.229690 -0.038403 -0.218806
v -0.126001 -0.044239 -0.371845
v -0.252438 -0.046673 -0.372649
v -0.392142 2.126257 0.003016
v -0.380072 2.132429 -0.253369
v -0.782365 2.176065 -0.100061
v -0.765480 2.242538 -0.023813
v -0.750055 2.118242 0.012649
v -0.801544 2.122169 -0.101841
v -0.388223 2.365798 -0.121761
v -0.194638 2.398546 -0.078916
v -0.789149 2.233958 -0.080173
v -1.181439 2.185120 -0.160505
v -1.188746 2.197140 -0.092429
v -1.173749 2.128132 -0.104898
v -1.224665 2.128250 -0.153757
v -1.212207 2.218171 -0.124877
v -0.822143 2.122465 -0.104368
v -0.790465 2.118214 -0.003112
v 0.000572 2.405081 -0.234142
v -0.000416 1.210081 0.093039
v 0.010761 2.831561 0.048426
v -0.008365 1.276854 -0.404741
v -0.003386 2.358467 -0.302979
v 0.006681 2.597602 -0.001911
v 0.006021 2.412704 -0.003624
v 0.003338 1.803698 0.151146
v -0.005075 1.232577 -0.376060
v 0.002380 1.210081 -0.284294
v -0.006614 1.279868 -0.405115
v -0.004041 1.416376 -0.411840
v -0.005623 1.417744 -0.401800
v 0.001548 1.520689 0.123443
v 0.000409 1.295344 0.106699
v -0.127408 1.250220 0.064000
v -0.111890 1.306464 0.131992
v -0.119968 1.552847 0.100956
v -0.003554 1.593513 -0.389323
v 0.262791 -0.095537 -0.044326
v 0.128345 2.831390 0.047571
v 0.031190 1.210081 0.084509
v 0.287524 -0.107202 -0.585636
v 0.127732 2.808340 -0.260516
v 0.020227 1.210081 -0.407858
v 0.230187 2.366399 -0.305411
v 0.233478 2.305920 0.083860
v 0.292036 2.023707 -0.301623
v 0.325921 1.948387 0.046656
v 0.373507 2.308687 -0.218321
v 0.454179 2.298946 -0.016218
v 0.340140 1.971256 0.047317
v 0.112316 2.598750 -0.002682
v 0.104449 2.591692 -0.182736
v 0.136026 2.408592 -0.234305
v 0.140539 2.415798 -0.004695
v 0.298986 1.944417 0.080575
v 0.000309 1.210081 -0.362789
v 0.089421 -0.107202 -0.583904
v 0.118528 -0.094077 -0.043064
v 0.030135 1.205321 0.084518
v 0.295429 1.324277 0.024191
v 0.041405 0.725482 -0.070329
v 0.267464 0.771594 -0.105856
v 0.309881 1.356155 -0.324471
v 0.236139 1.570074 0.030247
v 0.251575 1.623294 -0.283233
v 0.037706 0.697016 -0.408011
v 0.273038 0.743771 -0.360769
v 0.135697 -0.044461 -0.044906
v 0.130836 -0.034556 -0.226043
v 0.228584 -0.039978 -0.046960
v 0.227592 -0.038403 -0.222804
v 0.121244 -0.044239 -0.374006
v 0.247647 -0.046673 -0.377020
v 0.393897 2.126257 -0.003855
v 0.377347 2.132429 -0.259990
v 0.782258 2.176065 -0.113738
v 0.766709 2.242538 -0.037208
v 0.751923 2.118242 -0.000481
v 0.801403 2.122169 -0.115854
v 0.387797 2.365798 -0.128545
v 0.194991 2.398546 -0.082322
v 0.789389 2.233958 -0.093972
v 1.180214 2.185120 -0.181151
v 1.188711 2.197140 -0.113213
v 1.173498 2.128132 -0.125418
v 1.223552 2.128250 -0.175159
v 1.211601 2.218171 -0.146065
v 0.821954 2.122465 -0.118741
v 0.792051 2.118214 -0.016946
v -0.001522 2.821174 -0.274881
v 0.001628 2.301300 0.085402
v -0.000742 2.593349 -0.185683
v -0.002903 2.405081 -0.234112
v 0.003805 1.210081 0.093002
v -0.008151 2.831561 0.048591
v 0.003050 1.276854 -0.404841
v -0.000150 2.358467 -0.303008
v -0.004951 2.597602 -0.001810
v -0.004321 2.412704 -0.003534
v 0.001067 1.803698 0.151166
v 0.000262 1.232577 -0.376106
v -0.005588 1.210081 -0.284224
v 0.001293 1.279868 -0.405184
v -0.002554 1.970045 -0.392994
v -0.002491 1.588279 -0.385779
v -0.001397 1.416376 -0.411863
v 0.000360 1.417744 -0.401852
v 0.002372 1.520689 0.123436
v 0.003219 1.295344 0.106675
v 0.130270 1.250220 0.061748
v 0.115942 1.306464 0.130000
v 0.123477 1.552847 0.098828
v -0.001491 1.593513 -0.389341
v -0.002554 1.968429 -0.392978
vt 0.375000 0.750000
vt 0.375000 1.000000
vt 0.378128 1.000000
vt 0.378378 0.750000
vt 0.376479 0.750000
vt 0.325790 0.579370
vt 0.125000 0.567549
vt 0.125000 0.615012
vt 0.375000 0.611841
vt 0.375000 0.583009
vt 0.625000 0.612463
vt 0.625000 0.750000
vt 0.875000 0.750000
vt 0.875000 0.596727
vt 0.597618 0.186445
vt 0.625000 0.153273
vt 0.625000 0.000000
vt 0.597934 0.000000
vt 0.597934 1.000000
vt 0.625000 1.000000
vt 0.597497 0.750000
vt 0.569995 0.750000
vt 0.569995 0.750000
vt 0.570363 0.855459
vt 0.570495 0.893066
vt 0.534330 0.750000
vt 0.531127 1.000000
vt 0.531127 1.000000
vt 0.549925 1.000000
vt 0.557259 0.750000
vt 0.570869 0.000000
vt 0.570869 0.000000
vt 0.549925 0.000000
vt 0.531127 0.000000
vt 0.531127 0.000000
vt 0.584750 1.000000
vt 0.584100 0.750000
vt 0.584281 0.186181
vt 0.584750 0.000000
vt 0.570302 0.167213
vt 0.570869 1.000000
vt 0.527015 0.188415
vt 0.521338 0.000000
vt 0.125000 0.615422
vt 0.125000 0.656689
vt 0.125000 0.722905
vt 0.125000 0.727172
vt 0.375000 0.725196
vt 0.375000 0.723383
vt 0.375000 0.721150
vt 0.375000 0.656900
vt 0.375000 0.000000
vt 0.375000 0.022828
vt 0.375000 0.027095
vt 0.378128 0.000000
vt 0.125000 0.750000
vt 0.375000 0.093311
vt 0.375000 0.134578
vt 0.415803 0.083782
vt 0.483104 0.000000
vt 0.440576 0.000000
vt 0.489938 0.750000
vt 0.440949 0.750000
vt 0.503280 1.000000
vt 0.521338 1.000000
vt 0.511308 0.750000
vt 0.440576 1.000000
vt 0.483104 1.000000
vt 0.569995 0.750000
vt 0.570541 0.906280
vt 0.557259 0.750000
vt 0.557259 0.750000
vt 0.557259 0.750000
vt 0.569995 0.750000
vt 0.549925 1.000000
vt 0.570869 0.000000
vt 0.549925 0.000000
vt 0.570869 1.000000
vt 0.570869 1.000000
vt 0.549925 1.000000
vt 0.570869 1.000000
vt 0.570541 0.906280
vt 0.570869 0.000000
vt 0.549925 0.000000
vt 0.549925 0.000000
vt 0.549925 1.000000
vt 0.482185 0.591526
vt 0.429388 0.588020
vt 0.435365 0.588417
vt 0.380312 0.584761
vt 0.376790 0.583059
vt 0.405218 0.586415
vt 0.375000 0.134988
vt 0.375000 0.182451
vt 0.396834 0.183307
vt 0.429991 0.112855
vt 0.583300 0.577863
vt 0.569040 0.597379
vt 0.596957 0.577327
vt 0.404444 0.586363
vt 0.380312 0.584761
vt 0.454541 0.185572
vt 0.503280 0.000000
vt 0.478360 0.094882
vt 0.482412 0.591541
vt 0.375000 0.750000
vt 0.376479 0.750000
vt 0.378378 0.750000
vt 0.378128 1.000000
vt 0.375000 1.000000
vt 0.325790 0.579370
vt 0.375000 0.583009
vt 0.375000 0.611841
vt 0.125000 0.615012
vt 0.125000 0.567549
vt 0.875000 0.596727
vt 0.875000 0.750000
vt 0.625000 0.750000
vt 0.597618 0.186445
vt 0.597934 0.000000
vt 0.625000 0.000000
vt 0.625000 0.153273
vt 0.597934 1.000000
vt 0.597497 0.750000
vt 0.625000 1.000000
vt 0.569995 0.750000
vt 0.570495 0.893066
vt 0.570363 0.855459
vt 0.569995 0.750000
vt 0.534330 0.750000
vt 0.557259 0.750000
vt 0.549925 1.000000
vt 0.531127 1.000000
vt 0.531127 1.000000
vt 0.570869 0.000000
vt 0.531127 0.000000
vt 0.531127 0.000000
vt 0.549925 0.000000
vt 0.570869 0.000000
vt 0.584750 1.000000
vt 0.584100 0.750000
vt 0.584281 0.186181
vt 0.584750 0.000000
vt 0.570869 1.000000
vt 0.527015 0.188415
vt 0.521338 0.000000
vt 0.375000 0.656900
vt 0.375000 0.721150
vt 0.375000 0.723383
vt 0.375000 0.725196
vt 0.125000 0.727172
vt 0.125000 0.722905
vt 0.125000 0.656689
vt 0.125000 0.615422
vt 0.375000 0.000000
vt 0.378128 0.000000
vt 0.375000 0.027095
vt 0.375000 0.022828
vt 0.125000 0.750000
vt 0.375000 0.093311
vt 0.440576 0.000000
vt 0.483104 0.000000
vt 0.415803 0.083782
vt 0.375000 0.134578
vt 0.489938 0.750000
vt 0.440949 0.750000
vt 0.503280 1.000000
vt 0.511308 0.750000
vt 0.521338 1.000000
vt 0.483104 1.000000
vt 0.440576 1.000000
vt 0.570541 0.906280
vt 0.569995 0.750000
vt 0.557259 0.750000
vt 0.569995 0.750000
vt 0.557259 0.750000
vt 0.557259 0.750000
vt 0.549925 1.000000
vt 0.549925 0.000000
vt 0.570869 0.000000
vt 0.570869 1.000000
vt 0.570869 1.000000
vt 0.549925 1.000000
vt 0.570541 0.906280
vt 0.570869 1.000000
vt 0.549925 0.000000
vt 0.549925 0.000000
vt 0.570869 0.000000
vt 0.549925 1.000000
vt 0.429388 0.588020
vt 0.376790 0.583059
vt 0.380312 0.584761
vt 0.405218 0.586415
vt 0.429991 0.112855
vt 0.396834 0.183307
vt 0.375000 0.182451
vt 0.375000 0.134988
vt 0.569040 0.597379
vt 0.583300 0.577863
vt 0.404444 0.586363
vt 0.380312 0.584761
vt 0.454541 0.185572
vt 0.478360 0.094882
vt 0.503280 0.000000
vn -0.8472 0.5292 0.0465
vn 0.0000 -1.0000 -0.0000
vn -0.0523 0.9973 -0.0514
vn 0.0090 -0.2111 0.9774
vn -0.9961 -0.0879 0.0055
vn -0.2839 0.9280 -0.2411
vn -0.8254 -0.2638 -0.4992
vn -0.4373 -0.0045 0.8993
vn -0.9859 0.1662 -0.0183
vn 0.0096 -0.0095 0.9999
vn 0.0208 0.6237 0.7814
vn -0.4272 0.9024 0.0567
vn -0.1400 0.0854 0.9865
vn 0.9988 -0.0495 0.0031
vn 0.0041 0.0447 0.9990
vn 0.0045 -0.9997 0.0228
vn -0.2521 -0.2603 0.9320
vn -0.2488 0.0275 -0.9682
vn -0.9855 -0.1698 -0.0036
vn -0.1892 -0.1985 -0.9617
vn -0.0906 0.0567 0.9943
vn -0.0292 0.9979 -0.0578
vn -0.9987 -0.0008 0.0508
vn -0.0080 0.9591 -0.2829
vn -0.3374 0.6198 -0.7085
vn 0.1323 -0.1187 -0.9841
vn 0.0174 -0.9994 -0.0291
vn -0.0234 0.1529 0.9880
vn -0.3286 0.2076 -0.9214
vn -0.2244 0.8792 0.4202
vn -0.2369 0.9350 0.2640
vn -0.9585 -0.0323 0.2834
vn -0.0958 0.9775 0.1879
vn -0.2086 0.0524 0.9766
vn 0.0079 -0.9991 -0.0409
vn 0.1016 0.5486 -0.8299
vn -0.3544 0.2225 0.9083
vn -0.0161 -0.9997 -0.0203
vn -0.3619 -0.0483 -0.9310
vn 0.8812 -0.2180 -0.4196
vn -0.2776 0.1371 -0.9509
vn -0.1291 -0.4633 0.8767
vn 0.0201 0.8346 -0.5504
vn -0.0258 0.2607 -0.9651
vn -0.0635 -0.3534 -0.9333
vn -0.9530 0.0141 -0.3028
vn -0.3777 0.0935 -0.9212
vn -0.3162 -0.1133 0.9419
vn 0.0176 0.0305 0.9994
vn -0.4222 -0.6488 0.6331
vn -0.4865 0.0966 0.8683
vn -0.9993 0.0142 -0.0342
vn -0.1686 0.1275 -0.9774
vn 0.8479 0.5292 0.0317
vn 0.0514 0.9973 -0.0523
vn 0.0081 -0.2111 0.9774
vn 0.9961 -0.0879 -0.0119
vn 0.2797 0.9280 -0.2461
vn 0.8165 -0.2638 -0.5135
vn 0.4529 -0.0045 0.8915
vn 0.9855 0.1662 -0.0356
vn 0.0079 -0.0095 0.9999
vn -0.0072 0.6237 0.7816
vn 0.4281 0.9024 0.0492
vn 0.1572 0.0854 0.9839
vn -0.9986 -0.0495 0.0205
vn 0.0134 0.0447 0.9989
vn -0.0041 -0.9997 0.0229
vn 0.2684 -0.2603 0.9275
vn 0.2318 0.0275 -0.9724
vn 0.9853 -0.1698 -0.0208
vn 0.1723 -0.1985 -0.9648
vn 0.1080 0.0567 0.9925
vn 0.0281 0.9979 -0.0583
vn 0.9994 -0.0008 0.0333
vn 0.0031 0.9591 -0.2830
vn 0.3249 0.6198 -0.7143
vn -0.1495 -0.1187 -0.9816
vn -0.0179 -0.9994 -0.0288
vn 0.0406 0.1529 0.9874
vn 0.3125 0.2076 -0.9270
vn 0.2317 0.8792 0.4162
vn 0.2415 0.9350 0.2598
vn 0.9633 -0.0323 0.2666
vn 0.0991 0.9775 0.1862
vn 0.2257 0.0524 0.9728
vn -0.0086 -0.9991 -0.0408
vn -0.1161 0.5486 -0.8280
vn 0.3702 0.2225 0.9019
vn 0.0157 -0.9997 -0.0205
vn 0.3456 -0.0483 -0.9371
vn -0.8884 -0.2180 -0.4041
vn 0.2609 0.1371 -0.9556
vn 0.1444 -0.4633 0.8744
vn -0.0297 0.8346 -0.5500
vn 0.0089 0.2607 -0.9654
vn 0.0471 -0.3534 -0.9343
vn 0.9475 0.0141 -0.3194
vn 0.3615 0.0935 -0.9277
vn 0.3327 -0.1133 0.9362
vn -0.0002 0.0305 0.9995
vn 0.4332 -0.6488 0.6256
vn 0.5016 0.0966 0.8597
vn 0.9986 0.0142 -0.0516
vn 0.1515 0.1275 -0.9802
usemtl None
s off
f 4/1/1 1/2/1 33/3/1 34/4/1 36/5/1
f 62/6/2 54/7/2 3/8/2 6/9/2 19/10/2
f 124/11/3 5/12/3 2/13/3 55/14/3
f 58/15/4 55/16/4 2/17/4 14/18/4
f 14/19/5 2/20/5 5/12/5 15/21/5
f 7/22/6 11/23/6 43/24/6 44/25/6
f 9/26/7 10/27/7 13/28/7 37/29/7 38/30/7 11/23/7 7/22/7
f 8/31/8 12/32/8 37/33/8 13/34/8 10/35/8
f 17/36/9 14/19/9 15/21/9 16/37/9
f 59/38/10 58/15/10 14/18/10 17/39/10
f 125/40/11 59/38/11 17/39/11 8/31/11
f 8/41/12 17/36/12 16/37/12 7/22/12 44/25/12
f 60/42/13 125/40/13 8/31/13 10/35/13 18/43/13
f 3/8/14 22/44/14 24/45/14 31/46/14 21/47/14 20/48/14 35/49/14 32/50/14 29/51/14 6/9/14
f 1/52/15 21/53/15 31/54/15 33/55/15
f 21/47/16 1/56/16 4/1/16 20/48/16
f 24/57/17 22/58/17 68/59/17 23/60/17 25/61/17
f 26/62/18 6/9/18 29/51/18 30/63/18
f 27/64/19 18/65/19 10/27/19 9/26/19 28/66/19
f 29/51/20 32/50/20 34/4/20 30/63/20
f 31/54/21 24/57/21 25/61/21 33/55/21
f 32/50/22 35/49/22 36/5/22 34/4/22
f 33/3/23 25/67/23 23/68/23 27/64/23 28/66/23 26/62/23 30/63/23 34/4/23
f 35/49/24 20/48/24 4/1/24 36/5/24
f 11/23/25 39/69/25 45/70/25 43/24/25
f 42/71/26 51/72/26 49/73/26 46/74/26 39/69/26
f 37/29/27 41/75/27 42/71/27 38/30/27
f 12/32/28 40/76/28 41/77/28 37/33/28
f 38/30/29 42/71/29 39/69/29 11/23/29
f 43/24/30 12/78/30 8/41/30 44/25/30
f 45/70/31 40/79/31 12/78/31 43/24/31
f 48/80/32 47/81/32 50/82/32 46/74/32 49/73/32
f 45/70/33 50/82/33 47/81/33 40/79/33
f 40/76/34 47/83/34 48/84/34 52/85/34
f 41/75/35 52/86/35 51/72/35 42/71/35
f 39/69/36 46/74/36 50/82/36 45/70/36
f 52/85/37 41/77/37 40/76/37
f 52/86/38 48/80/38 49/73/38 51/72/38
f 28/66/39 9/26/39 148/87/39 71/88/39 139/89/39
f 19/10/40 6/9/40 56/90/40 61/91/40
f 6/9/41 26/62/41 28/66/41 65/92/41 56/90/41
f 22/58/42 3/93/42 54/94/42 67/95/42 69/96/42 68/59/42
f 7/22/43 16/37/43 53/97/43 57/98/43
f 16/37/44 15/21/44 126/99/44 53/97/44
f 15/21/45 5/12/45 124/11/45 126/99/45
f 64/100/46 63/101/46 56/90/46 65/92/46
f 28/66/47 139/89/47 65/92/47
f 66/102/48 60/42/48 18/43/48 27/103/48 70/104/48
f 67/95/49 66/102/49 70/104/49 69/96/49
f 69/96/50 23/60/50 68/59/50
f 70/104/51 27/103/51 23/60/51 69/96/51
f 71/88/52 64/100/52 65/92/52 139/89/52
f 9/26/53 7/22/53 57/98/53 138/105/53 148/87/53
f 75/106/54 107/107/54 105/108/54 104/109/54 72/110/54
f 136/111/2 90/112/2 77/113/2 74/114/2 128/115/2
f 124/11/55 129/116/55 73/117/55 76/118/55
f 132/119/56 85/120/56 73/121/56 129/122/56
f 85/123/57 86/124/57 76/118/57 73/125/57
f 78/126/58 115/127/58 114/128/58 82/129/58
f 80/130/59 78/126/59 82/129/59 109/131/59 108/132/59 84/133/59 81/134/59
f 79/135/60 81/136/60 84/137/60 108/138/60 83/139/60
f 88/140/61 87/141/61 86/124/61 85/123/61
f 133/142/62 88/143/62 85/120/62 132/119/62
f 125/40/63 79/135/63 88/143/63 133/142/63
f 79/144/64 115/127/64 78/126/64 87/141/64 88/140/64
f 134/145/65 89/146/65 81/136/65 79/135/65 125/40/65
f 74/114/66 77/113/66 100/147/66 103/148/66 106/149/66 91/150/66 92/151/66 102/152/66 95/153/66 93/154/66
f 72/155/67 104/156/67 102/157/67 92/158/67
f 92/151/68 91/150/68 75/106/68 72/159/68
f 95/160/69 96/161/69 94/162/69 144/163/69 93/164/69
f 97/165/70 101/166/70 100/147/70 77/113/70
f 98/167/71 99/168/71 80/130/71 81/134/71 89/169/71
f 100/147/72 101/166/72 105/108/72 103/148/72
f 102/157/73 104/156/73 96/161/73 95/160/73
f 103/148/74 105/108/74 107/107/74 106/149/74
f 104/109/75 105/108/75 101/166/75 97/165/75 99/168/75 98/167/75 94/170/75 96/171/75
f 106/149/76 107/107/76 75/106/76 91/150/76
f 82/129/77 114/128/77 116/172/77 110/173/77
f 113/174/78 110/173/78 117/175/78 120/176/78 122/177/78
f 108/132/79 109/131/79 113/174/79 112/178/79
f 83/139/80 108/138/80 112/179/80 111/180/80
f 109/131/81 82/129/81 110/173/81 113/174/81
f 114/128/82 115/127/82 79/144/82 83/181/82
f 116/172/83 114/128/83 83/181/83 111/182/83
f 119/183/84 120/176/84 117/175/84 121/184/84 118/185/84
f 116/172/85 111/182/85 118/185/85 121/184/85
f 111/180/86 123/186/86 119/187/86 118/188/86
f 112/178/87 113/174/87 122/177/87 123/189/87
f 110/173/88 116/172/88 121/184/88 117/175/88
f 123/186/89 111/180/89 112/179/89
f 123/189/90 122/177/90 120/176/90 119/183/90
f 99/168/91 139/89/91 147/190/91 148/87/91 80/130/91
f 90/112/92 135/191/92 130/192/92 77/113/92
f 77/113/93 130/192/93 141/193/93 99/168/93 97/165/93
f 93/164/94 144/163/94 145/194/94 143/195/94 128/196/94 74/197/94
f 78/126/95 131/198/95 127/199/95 87/141/95
f 87/141/96 127/199/96 126/99/96 86/124/96
f 86/124/97 126/99/97 124/11/97 76/118/97
f 140/200/98 141/193/98 130/192/98 137/201/98
f 99/168/99 141/193/99 139/89/99
f 142/202/100 146/203/100 98/204/100 89/146/100 134/145/100
f 143/195/101 145/194/101 146/203/101 142/202/101
f 145/194/102 144/163/102 94/162/102
f 146/203/103 145/194/103 94/162/103 98/204/103
f 147/190/104 139/89/104 141/193/104 140/200/104
f 80/130/105 148/87/105 138/105/105 131/198/105 78/126/105
