# Blender v2.82 (sub 7) OBJ File: 'treed.blend'
# www.blender.org
mtllib treed.mtl
o Cube
v 0.012646 0.050284 -0.019989
v 0.060397 -0.060397 -0.060397
v 0.016679 0.050181 0.020131
v 0.061292 -0.060388 0.062556
v -0.018025 0.051050 -0.023354
v -0.060397 -0.060397 -0.060397
v -0.017927 0.046403 0.016784
v -0.060397 -0.060397 0.060397
v -0.028853 -0.038256 0.026513
v 0.047114 -0.033853 -0.035981
v -0.043166 -0.035037 -0.025381
v 0.024235 -0.015038 0.016733
v 0.021384 -0.037091 0.036151
v -0.046489 -0.045287 -0.007593
v 0.023220 0.048948 -0.003251
v -0.020886 0.047373 -0.005913
v 0.042705 -0.048198 0.011725
v -0.035965 -0.036656 0.000725
v 0.035604 -0.024388 -0.009462
v -0.010785 -0.052903 -0.041676
v -0.002133 0.042768 0.025615
v -0.006251 -0.040103 0.040805
v -0.003118 0.044305 -0.022643
v 0.000181 -0.033793 0.025525
v 0.001959 -0.034445 -0.030679
v 0.006936 -0.052840 -0.003613
v -0.016265 0.160530 0.027704
v -0.020898 0.004599 0.017928
v 0.019631 0.010681 -0.028300
v -0.028391 0.006407 -0.023433
v 0.019883 0.017778 0.018028
v 0.027270 0.012092 -0.006125
v -0.020982 0.007790 -0.002491
v -0.002920 0.009552 -0.023997
v -0.000967 0.004727 0.025308
v 0.006723 0.095998 -0.002990
v -0.011038 0.094369 0.018706
v -0.023562 0.102137 -0.073893
v -0.018994 0.092367 0.006191
v 0.047452 -0.043034 -0.037410
v 0.046124 -0.048192 -0.018100
v 0.024790 -0.047409 -0.043638
v 0.018175 -0.047659 0.046017
v 0.031673 -0.043102 0.039187
v 0.040797 -0.048254 0.022104
v -0.038324 -0.045720 0.035853
v -0.025196 -0.047336 0.042796
v -0.040668 -0.039400 0.020250
v 0.005800 0.114370 0.006565
v -0.008495 0.103249 -0.006902
v -0.024486 0.113306 0.011609
v 0.017168 0.067690 -0.002369
v -0.024936 0.068596 0.001844
v -0.012085 0.080691 -0.025007
v 0.000057 0.101346 -0.026290
v -0.012820 0.102930 -0.026132
v -0.002916 0.095151 -0.037072
v -0.017866 0.099892 -0.042789
v -0.014451 0.100535 -0.041174
v -0.015527 0.121097 0.024457
v -0.012811 0.132995 0.011749
v -0.009414 0.127365 0.017537
vt 0.611950 0.643384
vt 0.563644 0.508373
vt 0.547284 0.451807
vt 0.585397 0.460462
vt 0.602658 0.533549
vt 0.465139 0.812595
vt 0.414203 0.829798
vt 0.423452 0.747667
vt 0.458881 0.720156
vt 0.479822 0.757305
vt 0.508018 0.057596
vt 0.533109 0.085593
vt 0.453295 0.087067
vt 0.346876 0.009508
vt 0.789589 0.611130
vt 0.680876 0.567078
vt 0.686703 0.537941
vt 0.622184 0.425968
vt 0.755990 0.470838
vt 0.831844 0.484525
vt 0.086022 0.098654
vt 0.161588 0.155324
vt 0.086976 0.204777
vt 0.010360 0.161030
vt 0.004330 0.137461
vt 0.055127 0.106056
vt 0.769787 0.384169
vt 0.807030 0.327406
vt 0.946149 0.328532
vt 0.947116 0.354660
vt 0.879110 0.370002
vt 0.108935 0.294687
vt 0.177952 0.259611
vt 0.199239 0.360590
vt 0.129122 0.382897
vt 0.060865 0.284461
vt 0.092669 0.384382
vt 0.792489 0.202284
vt 0.714439 0.210683
vt 0.747961 0.087217
vt 0.793047 0.105495
vt 0.522169 0.214919
vt 0.584755 0.206413
vt 0.580476 0.324114
vt 0.511020 0.325351
vt 0.233648 0.250829
vt 0.239719 0.364704
vt 0.458228 0.208036
vt 0.457482 0.336320
vt 0.292986 0.010407
vt 0.233323 0.080342
vt 0.173086 0.078921
vt 0.843787 0.718205
vt 0.735793 0.722628
vt 0.624920 0.771401
vt 0.670417 0.650842
vt 0.546344 0.657947
vt 0.407454 0.713022
vt 0.459437 0.322837
vt 0.534506 0.383268
vt 0.451782 0.421131
vt 0.840851 0.087582
vt 0.767721 0.006128
vt 0.851457 0.030275
vt 0.869349 0.082550
vt 0.994416 0.772295
vt 0.954147 0.621571
vt 0.862371 0.201405
vt 0.350900 0.787605
vt 0.370806 0.844476
vt 0.329438 0.859005
vt 0.300996 0.814986
vt 0.622134 0.414645
vt 0.668006 0.326281
vt 0.888707 0.480159
vt 0.994416 0.432936
vt 0.937227 0.542419
vt 0.546344 0.994945
vt 0.461942 0.915697
vt 0.487178 0.877826
vt 0.208649 0.415368
vt 0.227395 0.498247
vt 0.150949 0.522737
vt 0.237119 0.105262
vt 0.611950 0.084136
vt 0.027142 0.183604
vt 0.101375 0.940167
vt 0.089164 0.854531
vt 0.097962 0.847555
vt 0.121206 0.726892
vt 0.126869 0.796266
vt 0.091992 0.809949
vt 0.088214 0.757518
vt 0.126869 0.717958
vt 0.215848 0.552060
vt 0.184614 0.606134
vt 0.154816 0.599459
vt 0.607229 0.319773
vt 0.991057 0.414645
vt 0.447117 0.889341
vt 0.418471 0.934601
vt 0.348457 0.722808
vt 0.334855 0.687781
vt 0.031739 0.888403
vt 0.001276 0.834087
vt 0.086358 0.717193
vt 0.059350 0.798779
vt 0.086358 0.870083
vt 0.061611 0.813585
vt 0.397132 0.472326
vt 0.301966 0.475994
vt 0.593815 0.885792
vt 0.550672 0.789295
vt 0.593815 0.656334
vt 0.590676 0.774599
vt 0.579981 0.805190
vt 0.292986 0.505458
vt 0.122109 0.821569
vt 0.401990 0.475368
vt 0.506767 0.485688
vt 0.447978 0.482905
vt 0.179852 0.704217
vt 0.203371 0.620718
vn -0.7711 -0.1941 0.6065
vn -0.1856 0.8806 0.4361
vn -0.8462 0.5145 0.1384
vn -0.1305 -0.9913 0.0182
vn 0.7993 0.5072 0.3223
vn -0.0730 0.5469 -0.8340
vn 0.9596 0.0811 0.2694
vn 0.3124 -0.0131 0.9498
vn 0.0052 0.0174 -0.9998
vn -0.9964 0.0417 0.0743
vn 0.8892 0.1893 -0.4166
vn -0.9841 0.1272 0.1242
vn 0.8863 0.4285 0.1754
vn 0.0217 -0.9997 0.0078
vn -0.1664 0.9050 0.3916
vn -0.8016 0.0419 -0.5964
vn 0.5791 0.2818 -0.7650
vn -0.0398 -0.9832 0.1780
vn -0.0653 0.1224 -0.9903
vn -0.4116 0.0189 0.9112
vn 0.0388 0.7109 -0.7023
vn -0.0469 -0.9989 0.0092
vn 0.0182 0.8147 0.5796
vn 0.6728 0.3516 0.6510
vn -0.1394 0.1180 0.9832
vn -0.1423 0.1076 -0.9840
vn -0.9051 0.3177 0.2826
vn 0.9135 0.4064 -0.0182
vn -0.9461 0.2723 0.1756
vn -0.0880 0.1102 -0.9900
vn 0.1863 0.2049 0.9609
vn 0.9402 0.1517 0.3049
vn -0.2349 0.9655 0.1127
vn 0.3842 0.8726 -0.3015
vn 0.6928 -0.1053 0.7134
vn -0.7936 0.0181 0.6081
vn 0.0101 0.8006 -0.5991
vn 0.9365 0.3038 0.1750
vn 0.0316 0.8024 0.5959
vn 0.5004 0.8658 0.0061
vn -0.1172 0.8952 0.4299
vn -0.3900 0.9122 0.1254
vn -0.5922 0.3563 -0.7227
vn 0.4679 0.6378 -0.6118
vn -0.9920 -0.0803 -0.0977
vn 0.5971 -0.5465 -0.5872
vn 0.9230 0.3364 -0.1869
vn 0.3089 0.8846 -0.3493
vn -0.8112 0.5479 -0.2046
vn 0.4449 0.8920 -0.0802
vn 0.7659 -0.0385 0.6418
vn 0.9217 0.2744 -0.2741
usemtl Material
s off
f 27/1/1 51/2/1 39/3/1 37/4/1 60/5/1
f 22/6/2 24/7/2 9/8/2 46/9/2 47/10/2
f 14/11/3 18/12/3 11/13/3 6/14/3
f 26/15/4 17/16/4 45/17/4 4/18/4 43/19/4 22/20/4
f 17/21/5 19/22/5 12/23/5 13/24/5 44/25/5 45/26/5
f 20/27/6 25/28/6 10/29/6 40/30/6 42/31/6
f 31/32/7 32/33/7 15/34/7 3/35/7
f 35/36/8 31/32/8 3/35/8 21/37/8
f 34/38/9 30/39/9 5/40/9 23/41/9
f 33/42/10 28/43/10 7/44/10 16/45/10
f 32/33/11 29/46/11 1/47/11 15/34/11
f 30/48/12 33/42/12 16/45/12 5/49/12
f 2/50/13 40/51/13 41/52/13
f 20/53/14 42/54/14 2/55/14 41/56/14 17/16/14 26/15/14
f 8/57/15 46/9/15 48/58/15
f 23/59/16 5/49/16 16/45/16 53/60/16 54/61/16
f 1/62/17 23/41/17 54/63/17 52/64/17 15/65/17
f 6/66/18 20/53/18 26/15/18 14/67/18
f 29/68/19 34/38/19 23/41/19 1/62/19
f 28/69/20 35/70/20 21/71/20 7/72/20
f 6/73/21 11/74/21 25/28/21 20/27/21
f 14/67/22 26/15/22 22/20/22 47/75/22 8/76/22 48/77/22
f 4/78/23 44/79/23 43/80/23
f 15/34/24 52/81/24 36/82/24 37/83/24 21/37/24 3/35/24
f 9/8/25 24/7/25 35/70/25 28/69/25
f 10/29/26 25/28/26 34/38/26 29/68/26
f 11/13/27 18/12/27 33/42/27 30/48/27
f 19/22/28 10/84/28 29/46/28 32/33/28
f 18/12/29 9/85/29 28/43/29 33/42/29
f 25/28/30 11/74/30 30/39/30 34/38/30
f 24/86/31 13/24/31 12/23/31 31/32/31 35/36/31
f 12/23/32 19/22/32 32/33/32 31/32/32
f 38/87/33 58/88/33 59/89/33
f 36/90/34 55/91/34 56/92/34 50/93/34 49/94/34
f 37/83/35 36/82/35 49/95/35 62/96/35 60/97/35
f 37/4/36 39/3/36 53/60/36 16/45/36 7/44/36 21/98/36
f 42/31/37 40/30/37 2/99/37
f 41/52/38 40/51/38 10/84/38 19/22/38 17/21/38
f 43/80/39 44/79/39 13/100/39 24/7/39 22/6/39
f 45/101/40 44/79/40 4/78/40
f 47/10/41 46/9/41 8/57/41
f 48/58/42 46/9/42 9/8/42 18/102/42 14/103/42
f 50/104/43 51/105/43 27/106/43 61/107/43
f 49/108/44 50/104/44 61/107/44 62/109/44
f 54/61/45 53/60/45 39/3/45 58/110/45 38/111/45
f 52/112/46 54/113/46 38/114/46 57/115/46 55/116/46
f 55/117/47 36/82/47 52/81/47
f 56/92/48 55/91/48 57/118/48 59/89/48
f 59/119/49 58/110/49 39/3/49 51/2/49 50/120/49 56/121/49
f 59/89/50 57/118/50 38/87/50
f 60/97/51 62/96/51 27/122/51
f 62/96/52 61/123/52 27/122/52
